<svg height="512pt" viewBox="-63 0 512 512" width="512pt" xmlns="http://www.w3.org/2000/svg"><path d="m378.230469 385.746094c-24.84375-32.835938-36.496094-73.726563-36.675781-128.695313-.085938-26.714843-7.152344-52.605469-20.503907-75.511719 24.367188-8.375 41.933594-31.511718 41.933594-58.683593 0-34.214844-27.835937-62.050781-62.054687-62.050781-10.480469 0-20.355469 2.621093-29.023438 7.226562-5.660156-38.433594-38.847656-68.03125-78.832031-68.03125-21.023438 0-40.871094 8.144531-55.886719 22.929688-2.953125 2.90625-2.988281 7.65625-.082031 10.605468 2.90625 2.953125 7.65625 2.988282 10.605469.082032 12.191406-12.003907 28.304687-18.617188 45.363281-18.617188 35.230469 0 63.949219 28.308594 64.660156 63.367188-9.796875 9.515624-16.460937 22.222656-18.3125 36.421874-4.644531-1.550781-9.347656-2.863281-14.105469-3.9375 7.894532-8.152343 12.578125-19.199218 12.578125-31.160156 0-24.710937-20.105469-44.816406-44.820312-44.816406-24.710938 0-44.816407 20.105469-44.816407 44.816406 0 11.9375 4.671876 22.972656 12.542969 31.121094-7.011719 1.546875-13.878906 3.601562-20.550781 6.144531-7.683594-10.871093-11.867188-23.910156-11.867188-37.265625 0-6.550781.980469-13.015625 2.914063-19.210937 1.230469-3.957031-.976563-8.160157-4.929687-9.394531-3.953126-1.234376-8.160157.972656-9.390626 4.929687-2.382812 7.640625-3.59375 15.609375-3.59375 23.675781 0 15.445313 4.546876 30.542969 12.921876 43.410156-13.984376 7.0625-26.898438 16.394532-38.277344 27.808594-27.941406 28.019532-43.328125 65.238282-43.328125 104.808594 0 55.75-11.710938 97.140625-36.847657 130.25-8.882812 11.699219-10.339843 27.144531-3.804687 40.3125 6.550781 13.199219 19.769531 21.398438 34.5 21.398438h83.105469c3.761718 36.09375 34.355468 64.320312 71.421875 64.320312 37.066406 0 67.660156-28.226562 71.425781-64.316406h65.554688c4.140624 0 7.5-3.359375 7.5-7.5s-3.359376-7.5-7.5-7.5h-291.507813c-9.128906 0-17-4.882813-21.0625-13.066406-4.046875-8.152344-3.183594-17.339844 2.3125-24.574219 1.84375-2.429688 3.617187-4.898438 5.324219-7.40625h336c1.65625 2.421875 3.367187 4.8125 5.144531 7.160156 4.046875 5.351563 5.667969 11.839844 4.5625 18.277344-1.113281 6.511719-4.851563 12.285156-10.246094 15.84375-3.457031 2.28125-4.410156 6.933593-2.128906 10.390625 1.441406 2.1875 3.832031 3.371094 6.269531 3.371094 1.417969 0 2.851563-.402344 4.121094-1.242188 8.84375-5.832031 14.953125-15.246094 16.769531-25.824219 1.8125-10.570312-.808593-21.175781-7.382812-29.867187zm-128.847657 61.9375c-3.6875 27.792968-27.523437 49.316406-56.308593 49.316406-28.785157 0-52.621094-21.523438-56.304688-49.316406zm51.546876-371.878906c25.945312 0 47.054687 21.105468 47.054687 47.050781 0 25.945312-21.109375 47.050781-47.054687 47.050781-25.941407 0-47.050782-21.105469-47.050782-47.050781 0-25.945313 21.105469-47.050781 47.050782-47.050781zm-107.855469-25.929688c16.441406 0 29.816406 13.378906 29.816406 29.816406 0 12.585938-7.800781 23.644532-19.53125 27.960938-3.394531-.234375-6.808594-.359375-10.238281-.359375-.144532 0-.296875 0-.441406.003906-3.3125.007813-6.609376.136719-9.882813.359375-11.734375-4.3125-19.539063-15.375-19.539063-27.960938 0-16.441406 13.375-29.820312 29.816407-29.820312zm-133.375 205.847656c0-73.355468 59.675781-133.210937 133.023437-133.425781 16.046875-.035156 31.746094 2.789063 46.667969 8.410156 3.875 30.519531 29.984375 54.199219 61.539063 54.199219 1.515624 0 3.015624-.070312 4.503906-.179688 13.742187 21.675782 21.035156 46.597657 21.121094 72.375.097656 30.414063 3.578124 56.851563 10.683593 80.234376h-288.234375c7.214844-23.738282 10.695313-50.628907 10.695313-81.613282zm-25.402344 116.914063c3.542969-6.496094 6.699219-13.25 9.480469-20.300781h298.6875c2.78125 7.046874 5.941406 13.804687 9.484375 20.300781zm252.039063-162.839844c-4.144532 0-7.5 3.359375-7.5 7.5v13.015625c0 4.144531 3.355468 7.5 7.5 7.5 4.140624 0 7.5-3.355469 7.5-7.5v-13.015625c0-4.140625-3.359376-7.5-7.5-7.5zm-154.242188 0c-4.140625 0-7.5 3.359375-7.5 7.5v13.015625c0 4.144531 3.359375 7.5 7.5 7.5 4.144531 0 7.5-3.355469 7.5-7.5v-13.015625c0-4.140625-3.355469-7.5-7.5-7.5zm77.121094-4.382813c-17.617188 0-31.949219 15.636719-31.949219 34.859376 0 19.222656 14.332031 34.859374 31.949219 34.859374 17.617187 0 31.949218-15.636718 31.949218-34.859374 0-19.222657-14.332031-34.859376-31.949218-34.859376zm0 54.71875c-9.347656 0-16.949219-8.90625-16.949219-19.859374 0-10.949219 7.601563-19.859376 16.949219-19.859376s16.949218 8.910157 16.949218 19.859376c0 10.953124-7.601562 19.859374-16.949218 19.859374zm0 0"/></svg>